<?xml version="1.0" standalone="no"?>
<!DOCTYPE svg PUBLIC "-//W3C//DTD SVG 1.1//EN" "http://www.w3.org/Graphics/SVG/1.1/DTD/svg11.dtd" >
<!--
2013-9-30: Created.
-->
<svg>
<metadata>
Created by iconfont
</metadata>
<defs>

<font id="iconfont" horiz-adv-x="1024" >
  <font-face
    font-family="iconfont"
    font-weight="500"
    font-stretch="normal"
    units-per-em="1024"
    ascent="896"
    descent="-128"
  />
    <missing-glyph />
    
    <glyph glyph-name="x" unicode="x" horiz-adv-x="1001"
d="M281 543q-27 -1 -53 -1h-83q-18 0 -36.5 -6t-32.5 -18.5t-23 -32t-9 -45.5v-76h912v41q0 16 -0.5 30t-0.5 18q0 13 -5 29t-17 29.5t-31.5 22.5t-49.5 9h-133v-97h-438v97zM955 310v-52q0 -23 0.5 -52t0.5 -58t-10.5 -47.5t-26 -30t-33 -16t-31.5 -4.5q-14 -1 -29.5 -0.5
t-29.5 0.5h-32l-45 128h-439l-44 -128h-29h-34q-20 0 -45 1q-25 0 -41 9.5t-25.5 23t-13.5 29.5t-4 30v167h911zM163 247q-12 0 -21 -8.5t-9 -21.5t9 -21.5t21 -8.5q13 0 22 8.5t9 21.5t-9 21.5t-22 8.5zM316 123q-8 -26 -14 -48q-5 -19 -10.5 -37t-7.5 -25t-3 -15t1 -14.5
t9.5 -10.5t21.5 -4h37h67h81h80h64h36q23 0 34 12t2 38q-5 13 -9.5 30.5t-9.5 34.5q-5 19 -11 39h-368zM336 498v228q0 11 2.5 23t10 21.5t20.5 15.5t34 6h188q31 0 51.5 -14.5t20.5 -52.5v-227h-327z" />
    

    
    <glyph glyph-name="icon03" unicode="&#58894;" d="M418.29888 72.570624c-14.138368 0-25.6 11.461632-25.6 25.6l0 212.105216-202.155008 202.155008c-9.997312 9.997312-9.997312 26.206208 0 36.20352 9.997312 9.996288 26.207232 9.997312 36.20352 0l209.652736-209.65376c4.800512-4.800512 7.497728-11.312128 7.497728-18.102272l0-222.708736C443.89888 84.032256 432.436224 72.570624 418.29888 72.570624zM599.537664-81.021184c-14.138368 0-25.6 11.461632-25.6 25.6l0 369.773568c0 6.78912 2.697216 13.300736 7.497728 18.102272l216.373248 216.373248c9.998336 9.997312 26.206208 9.997312 36.20352 0 9.997312-9.997312 9.997312-26.206208 0-36.20352l-208.874496-208.874496 0-359.169024C625.137664-69.559552 613.676032-81.021184 599.537664-81.021184zM209.173504 504.931072c-6.738944 0-13.466624 2.643968-18.495488 7.897088-16.313344 17.040384-25.296896 39.419904-25.296896 63.014912 0 50.250752 40.882176 91.132928 91.132928 91.132928 14.139392 0 25.6-11.461632 25.6-25.6s-11.460608-25.6-25.6-25.6c-22.019072 0-39.932928-17.913856-39.932928-39.932928 0-10.339328 3.935232-20.144128 11.080704-27.608064 9.777152-10.213376 9.423872-26.418176-0.789504-36.195328C221.914112 507.291392 215.537664 504.931072 209.173504 504.931072zM815.681536 505.147136c-6.327296 0-12.663808 2.330624-17.615872 7.028736-10.257408 9.731072-10.683392 25.934848-0.95232 36.191232 7.064576 7.445504 10.955776 17.204224 10.955776 27.475968 0 22.019072-17.912832 39.932928-39.931904 39.932928-14.138368 0-25.6 11.461632-25.6 25.6s11.461632 25.6 25.6 25.6c50.249728 0 91.131904-40.882176 91.131904-91.132928 0-23.442432-8.8832-45.715456-25.013248-62.715904C829.223936 507.821824 822.458368 505.147136 815.681536 505.147136zM768.137216 615.776l-511.623168 0c-14.138368 0-25.6 11.461632-25.6 25.6s11.461632 25.6 25.6 25.6l511.623168 0c14.139392 0 25.6-11.461632 25.6-25.6S782.276608 615.776 768.137216 615.776z"  horiz-adv-x="1024" />

    
    <glyph glyph-name="msnui-more" unicode="&#59001;" d="M169.002 489.682c-57.562 0-104.228-46.646-104.228-104.228 0-57.563 46.666-104.209 104.228-104.209s104.228 46.646 104.228 104.209c0 57.582-46.667 104.228-104.228 104.228zM501.431 489.682c-57.562 0-104.228-46.646-104.228-104.228 0-57.563 46.667-104.209 104.228-104.209s104.228 46.646 104.228 104.209c0 57.582-46.666 104.228-104.228 104.228zM854.638 489.682c-57.563 0-104.23-46.646-104.23-104.228 0-57.563 46.667-104.209 104.23-104.209s104.228 46.646 104.228 104.209c-0.001 57.582-46.666 104.228-104.228 104.228z"  horiz-adv-x="1024" />

    
    <glyph glyph-name="shouye" unicode="&#58921;" d="M982.229153 343.911092 541.252743 798.451426c-7.630794 7.867178-18.293645 12.378935-29.256324 12.378935-10.956539 0-21.618367-4.511757-29.251208-12.376888L41.762661 343.906999c-11.604292-10.773368-46.286186-47.547923-30.54876-88.923262 18.322297-48.185442 83.715657-48.560996 108.332311-48.705282 11.598152-0.065492 21.280676-0.11154 29.365818-0.138146l0-342.742085c-0.51677-8.05035 0.555655-23.13593 12.450567-38.09769 19.584034-24.63098 57.867966-36.101219 120.474862-36.101219l33.56649-0.027629c40.749076 0 61.818951 0.645706 78.907141 6.547113 18.829857 6.505158 41.275056 22.810518 41.275056 63.545268L435.586145 149.916796l152.826688 0 0-290.652729c0-40.73475 22.447245-57.039087 41.274032-63.545268 17.074887-5.90243 38.193881-6.547113 79.05245-6.547113l33.42118 0.027629c62.60792 0 100.887758 11.470239 120.466676 36.097126 11.900028 14.951527 12.973476 30.039153 12.45773 38.09769L875.0849 206.140309c8.080026 0.025583 17.761526 0.071631 29.363771 0.138146 24.617677 0.144286 90.013083 0.51984 108.336404 48.705282C1028.524548 296.377496 993.835492 333.137725 982.229153 343.911092zM833.887616 287.787864c-22.231327-0.237407-40.320311-18.519796-40.320311-40.749076l0-371.392612c-8.146541-2.224668-23.735587-4.925173-51.40681-4.925173l-18.695804-0.01842c-5.186116-0.01228-10.088776-0.023536-14.7264-0.023536-10.228969 0-26.63359 0-38.811957 0.60989L669.926334 190.675082c0 22.470781-18.283412 40.756239-40.754193 40.756239L394.826835 231.431322c-22.470781 0-40.754193-18.285458-40.754193-40.756239l0-319.385121c-12.181437-0.60989-28.586059-0.60989-38.816051-0.60989-4.638647 0-9.54233 0.01228-14.738679 0.023536l-18.681478 0.01842c-27.669176 0-43.259246 2.700505-51.40988 4.932336L230.426555 246.795241c0.086981 3.52529-0.522909 14.008039-9.649777 23.817452-10.492982 11.281951-27.925003 17.002232-51.816133 17.002232-10.301623 0-25.76071 0.045025-48.943712 0.180102-7.334036 0.041956-13.392008 0.340761-18.368346 0.776689L511.996418 711.538961l410.345786-422.968268c-4.974291-0.435928-11.032264-0.734734-18.365276-0.776689-48.464805-0.281409-63.185065-0.161682-67.024509-0.086981-0.825808 0.057305-1.654686 0.084934-2.50403 0.084934L833.887616 287.787864z"  horiz-adv-x="1024" />

    
    <glyph glyph-name="fenleisousuo" unicode="&#59058;" d="M86.803483 556.125355 320.953338 556.125355c6.963599 22.214954 15.225773 43.449581 24.448832 63.74993L86.803483 619.875285c-12.602016 0-22.829961-14.280238-22.829961-31.875988C63.974545 570.405593 74.201467 556.125355 86.803483 556.125355L86.803483 556.125355zM89.113085 232.217221l292.821115 0c-11.596106 20.200064-22.167882 41.430598-31.232328 63.940265L89.113085 296.157485c-13.44522 0-24.357757-14.292518-24.357757-31.971156C64.756351 246.507692 75.667865 232.217221 89.113085 232.217221L89.113085 232.217221zM864.956216-19.580572l-776.617773 0c-13.396101 0-24.26873-14.280238-24.26873-31.953759 0-17.674545 10.872628-31.955806 24.26873-31.955806l776.617773 0c13.419637 0 24.26873 14.280238 24.26873 31.955806C889.224945-33.86081 878.375853-19.580572 864.956216-19.580572L864.956216-19.580572zM954.333826 70.009885l-134.892223 137.825019c57.589626 49.586348 91.324962 119.535467 92.205005 201.487967 1.623987 151.293775-119.717615 275.266297-271.004227 276.889261-151.287635 1.623987-275.268344-119.719662-276.891308-271.007297-1.623987-151.282518 119.722732-275.262204 271.010367-276.886191 52.756551-0.566912 91.296309 4.558829 133.376707 29.933753l139.659807-142.688793c8.854669-9.05012 31.270191-2.25332 40.271192 6.604418 8.998955 8.804527 15.075347 28.844955 6.269797 37.842887L954.333826 70.009885zM635.458311 203.261749c-115.438149 1.237177-208.006428 95.837742-206.768227 211.250308 1.239224 115.430986 95.818299 208.001311 211.254402 206.762087 115.391077-1.238201 207.999264-95.818299 206.761064-211.249285C845.466326 294.612293 750.848365 202.021501 635.458311 203.261749L635.458311 203.261749zM634.73381 208.930865"  horiz-adv-x="1024" />

    
    <glyph glyph-name="gouwuche" unicode="&#58942;" d="M903.907854 38.384607 321.872778 38.384607c-16.337083 0-31.911804 14.735609-34.008558 32.197306l-61.008492 429.649434L192.351889 699.36878c-6.27389 51.364855-51.410903 91.541903-102.805434 91.541903L43.901883 790.910683c-18.794042 0-34.08326-15.289218-34.08326-34.08326S25.106818 722.744163 43.901883 722.744163l45.645596 0c16.935718 0 33.125445-15.229866 35.356252-33.231869l34.57547-199.856817 60.769039-427.927209c6.214539-51.30448 50.840922-91.481528 101.621469-91.481528l582.035076 0c18.794042 0 34.08326 15.289218 34.08326 34.08326 0 18.762319-15.289218 34.05256-34.08326 34.05256l0 0L903.907854 38.382561zM984.695832 651.959004c-17.941628 20.304442-42.649356 31.477922-69.514213 31.477922L294.733675 683.436926c-18.794042 0-34.08326-15.289218-34.08326-34.08326s15.289218-34.08326 34.08326-34.08326l620.446921 0c7.322779 0 13.537318-2.859118 18.47784-8.461719 7.353478-8.311293 11.097756-21.955034 9.555633-34.772968l-56.455803-323.056744c-2.097778-17.20587-18.524912-31.403221-36.599569-31.506575l-485.999836-35.849486c-9.074679-0.659009-17.327644-4.777817-23.25668-11.680017-5.961782-6.871501-8.864902-15.663748-8.206916-24.738427 1.289366-17.729803 16.20303-31.612998 33.962509-31.612998 0.808412 0 1.662873 0.028653 2.50096 0.105401l483.468177 35.730783c50.856271 0 95.393627 39.337937 101.515045 89.549525l56.501852 323.056744c4.072759 33.873482-5.375427 66.684772-25.952068 89.924055l0 0L984.695832 651.959004zM331.139839-208.930081c38.545898 0 69.919443 31.373545 69.919443 69.90307 0 38.560224-31.373545 69.933769-69.919443 69.933769-38.533618 0-69.919443-31.373545-69.919443-69.933769C261.220397-177.559607 292.609291-208.930081 331.139839-208.930081L331.139839-208.930081zM832.835146-208.930081c38.516222 0 69.90307 31.373545 69.90307 69.90307 0 38.560224-31.373545 69.933769-69.90307 69.933769-38.560224 0-69.933769-31.373545-69.933769-69.933769C762.901377-177.559607 794.290271-208.930081 832.835146-208.930081z"  horiz-adv-x="1024" />

    
    <glyph glyph-name="yuanquan" unicode="&#58899;" d="M507.569084 682.607024c202.418152 0 366.502231-164.084079 366.502231-366.477672 0-202.418152-164.084079-366.502231-366.502231-366.502231-202.393593 0-366.477672 164.084079-366.477672 366.502231C141.091412 518.521922 305.175491 682.607024 507.569084 682.607024z"  horiz-adv-x="1024" />

    
    <glyph glyph-name="daishouhuo" unicode="&#58933;" d="M904.13861-146.731484 119.865483-146.731484c-30.53648 0-55.379285 24.845874-55.379285 55.384401L64.486198 462.172543c0 0.229221 0.272199 23.785729 3.64911 34.875299l61.60201 202.623837c7.253194 23.886013 30.30726 41.901319 53.621245 41.901319L840.63939 741.572998c23.324218 0 46.382377-18.016329 53.635571-41.908482l61.59587-202.62486c3.369747-11.08036 3.6399-34.638915 3.6399-34.867112L959.510732-91.347083C959.510732-121.884586 934.669974-146.731484 904.13861-146.731484zM183.359586 710.103262c-9.356089 0-20.342304-9.149381-23.509437-19.580964l-61.606103-202.636117c-1.376347-4.517897-2.286066-20.462031-2.286066-25.712615L95.95798-91.347083c0-13.187347 10.725272-23.912619 23.908526-23.912619l784.273127 0c13.179161 0 23.901363 10.725272 23.901363 23.912619L928.040996 462.172543c0 5.253654-0.909719 21.202904-2.28095 25.711592l-61.597917 202.633047c-3.168156 10.4367-14.158465 19.585057-23.521716 19.585057L183.359586 710.102239zM954.630584 452.042835c0-0.673335-0.933255-1.219781-2.080382-1.219781L79.060125 450.823054c-1.150196 0-2.081405 0.546446-2.081405 1.219781l0 29.03222c0 0.672312 0.932232 1.218758 2.081405 1.218758l873.490078 0c1.147126 0 2.080382-0.546446 2.080382-1.218758L954.630584 452.042835zM861.399203 214.63068c0-8.688893-7.045463-15.734356-15.733333-15.734356L527.733844 198.896324c-8.689916 0-15.735379 7.045463-15.735379 15.734356l0 0c0 8.69094 7.045463 15.735379 15.735379 15.735379l317.932026 0C854.35374 230.36606 861.399203 223.32162 861.399203 214.63068L861.399203 214.63068zM861.399203 93.705564c0-8.688893-7.045463-15.733333-15.733333-15.733333L628.842637 77.972231c-8.689916 0-15.735379 7.04444-15.735379 15.733333l0 0c0 8.69094 7.045463 15.736403 15.735379 15.736403l216.823234 0C854.35374 109.441966 861.399203 102.396503 861.399203 93.705564L861.399203 93.705564z"  horiz-adv-x="1024" />

    
    <glyph glyph-name="zhifubao" unicode="&#983708;" d="M776.496511 802.327574 238.646773 802.327574c-82.171488 0-149.402705-67.232241-149.402705-149.402705l0-537.849738c0-82.171488 67.232241-149.401682 149.402705-149.401682l537.848715 0c82.171488 0 149.402705 67.230194 149.402705 149.401682l0 537.849738C925.899216 735.096357 858.666976 802.327574 776.496511 802.327574zM776.496511 25.434531 238.646773 25.434531c-49.431829 0-89.641623 40.210817-89.641623 89.6406l0 537.849738c0 49.431829 40.209794 89.642646 89.641623 89.642646l537.848715 0c49.430806 0 89.641623-40.210817 89.641623-89.642646l0-438.898075c-43.565215 30.522154-112.052029 72.863495-222.556818 117.829616 37.087687 68.484767 57.280588 128.042211 59.149145 133.585461l13.07069 37.614689L537.452183 503.05656l0 60.22771 209.162764 0 0 59.759035L537.452183 623.043305l0 89.642646c0 0-28.771277 0-43.332924 0-14.560624 0-15.96153-9.42465-15.96153-11.949146 0-2.523473 0-77.692477 0-77.692477L268.528338 623.044328l0-59.759035 209.629391 0 0-60.22771L298.407855 503.057583l0-59.294454 332.85797 0c-11.263531-27.458375-26.583448-59.2218-45.288462-92.561116-78.042447 24.031323-171.69543 38.956244-235.089249 31.326473-64.167438-7.674796-112.198362-39.875173-131.777279-88.343047-17.056468-42.25436-9.367345-90.925872 20.060895-127.020952 27.970028-34.287921 70.513984-52.553936 120.179127-52.553936 12.94073 0 26.378787 1.223874 40.151465 3.765767 83.425038 15.288195 164.998915 86.896092 213.117842 161.160493 126.524648-43.682895 219.902362-112.13901 253.516948-134.578068l0-29.882588C866.137111 65.645348 825.926294 25.434531 776.496511 25.434531zM553.501718 298.765757c-40.910759-59.616796-107.149369-111.060445-164.766624-121.624035-44.601824-8.081049-82.201164 1.955538-103.253642 27.809369-15.654538 19.200294-19.857257 44.819788-10.957563 66.851571 11.337209 28.070312 40.969087 46.309722 83.455737 51.386344 9.425673 1.136893 19.288299 1.663896 29.515221 1.663896C432.665629 324.852902 500.028852 314.464297 553.501718 298.765757z"  horiz-adv-x="1024" />

    
    <glyph glyph-name="dianzanmw" unicode="&#58891;" d="M512 809.68C230.499 809.68 2.294 581.477 2.294 299.975c0-281.503 228.204-509.653 509.706-509.653 281.501 0 509.704 228.15 509.704 509.653C1021.704 581.477 793.501 809.68 512 809.68zM352.527 50.026c0 0 0.161-14.32-18.137-14.32l-87.717 0c0 0-21.638 0-21.638 21.639L204.14 396.973c0 0 0.318 20.628 21.266 20.628l101.347 0c0 0 25.774 0.319 25.774-25.772L352.527 50.026zM756.961 98.604c0 0-19.517-62.898-43.433-62.898L459.125 35.706c-17.713 0-62.897 11.986-62.897 45.186L396.228 417.708c0 0 125.848 93.073 125.848 211.816 3.555 6.205-6.205 43.435 40.783 43.435 0 0 110.786-12.41 45.186-255.251l169.282 0c0 0 42.533 3.553 42.533-40.783C819.859 376.925 819.859 313.127 756.961 98.604z"  horiz-adv-x="1024" />

    
    <glyph glyph-name="shangxiajiantou" unicode="&#58907;" d="M921.993 310.857l-413.758-413.758-413.758 413.758 827.517 0zM921.993 482.242l-413.758 413.758-413.758-413.758 827.517 0z"  horiz-adv-x="1024" />

    
    <glyph glyph-name="kefu" unicode="&#59201;" d="M190.591634-64.526793c-17.717453 0-31.994625 14.277171-31.994625 31.994625 0 69.493701 82.050731 119.721821 226.370569 139.847472l0 9.63279c-97.876029 74.998152-97.876029 213.985554-97.876029 298.616496 0 139.675458 82.222745 223.102301 219.834033 223.102301l7.396607 0c137.611288 0 219.834033-83.426844 219.834033-223.102301 0-10.320847-0.172014-20.641693-0.344028-31.306568-0.516042-17.717453-14.965228-31.650596-32.854695-31.134554-17.717453 0.516042-31.650596 15.137242-31.134554 32.854695 0.344028 9.976818 0.344028 19.781623 0.344028 29.586427 0 105.616664-52.464304 159.113052-155.844784 159.113052l-7.396607 0c-103.38048 0-155.844784-53.496388-155.844784-159.113052 0-102.176382 6.364522-206.244919 83.082815-255.096926 9.288762-5.84848 14.793214-15.997312 14.793214-27.006215L448.956828 78.932975c0-16.341341-12.385016-30.102469-28.554342-31.82261-128.494541-13.589115-197.816227-51.260205-197.816227-79.642533C222.586259-50.077608 208.137074-64.526793 190.591634-64.526793zM833.752394-64.526793c-17.717453 0-31.994625 14.277171-31.994625 31.994625 0 28.554342-69.321687 66.053418-197.816227 79.642533-16.341341 1.720141-28.726356 15.48127-28.726356 31.82261l0 54.700487c0 17.717453 14.277171 31.994625 31.994625 31.994625s31.994625-14.277171 31.994625-31.994625l0-26.318159c144.319839-19.953637 226.370569-70.353771 226.370569-139.847472C865.747018-50.077608 851.469847-64.526793 833.752394-64.526793zM612.198219 222.564757c-44.035612 0-76.890307 4.472367-77.750378 4.644381-15.825298 4.816395-25.286074 20.813707-21.845792 37.155048 3.268268 16.169326 18.40551 26.834201 34.918864 25.286074 79.814547-8.77272 201.600538-1.204099 222.930287 43.175542 7.568621 15.825298 26.662187 22.705863 42.659499 14.965228 15.997312-7.568621 22.705863-26.834201 14.965228-42.659499C794.705191 235.63783 687.368386 222.564757 612.198219 222.564757zM896.021502 256.107509c-17.717453 0-31.994625 14.277171-31.994625 31.994625l0 111.809172-42.831514 15.309256c-12.729044 4.472367-21.32975 16.685369-21.32975 30.102469 0 160.489165-129.182597 291.219889-287.951621 291.219889-158.769024 0-287.951621-130.730724-287.951621-291.219889 0-10.320847-4.988409-19.953637-13.417101-25.974131l-18.577524-13.245087 0-118.00168c0-17.717453-14.277171-31.994625-31.994625-31.994625s-31.994625 14.277171-31.994625 31.994625l0 134.34302c0 10.320847 4.988409 19.953637 13.417101 25.974131l18.921552 13.589115C169.089871 650.019822 323.386528 800.360155 511.913993 800.360155c186.463296 0 339.555854-147.072065 351.252814-332.331262l43.51957-15.48127c12.729044-4.472367 21.32975-16.685369 21.32975-30.102469l0-134.34302C928.016126 270.38468 913.738955 256.107509 896.021502 256.107509z"  horiz-adv-x="1024" />

    
    <glyph glyph-name="wode" unicode="&#58882;" d="M709.405487 185.315892l-94.135984 0 0 86.214571c34.20401 24.102954 63.571874 59.467393 85.005023 102.095259 0.217964-0.037862 0.434905-0.081864 0.653893-0.116657 34.322713-5.461385 68.932975 32.751938 77.30362 85.35397 7.849782 49.328475-10.165524 93.792153-40.742936 103.638405C730.837612 713.275375 664.442436 831.586968 511.153214 831.586968c-150.442384 0-219.428571-118.404714-226.318492-269.264607-30.259164-10.183943-48.025807-54.414307-40.22105-103.46035 8.370645-52.602032 42.980907-90.816378 77.30362-85.35397 0.053212 0.008186 0.105401 0.020466 0.158612 0.028653 21.963221-43.649126 52.242851-79.688947 87.518263-103.797018l0-84.423785-94.155427 0c-137.77283 0-249.460562-111.686708-249.460562-249.460562l892.88787 0C958.866049 73.629183 847.17934 185.315892 709.405487 185.315892z"  horiz-adv-x="1024" />

    
    <glyph glyph-name="xuanze1" unicode="&#58931;" d="M512.064 831.04C265.536 831.04 65.024 630.464 65.024 384c0-246.528 200.576-446.976 447.04-446.976 246.464 0 446.912 200.512 446.912 446.976C959.104 630.464 758.528 831.04 512.064 831.04zM512.064-20.224c-222.912 0-404.288 181.376-404.288 404.288 0 222.848 181.376 404.224 404.288 404.224 223.04 0 404.16-181.376 404.16-404.224C916.224 161.152 734.976-20.224 512.064-20.224zM792.768 596.992 422.144 226.496 231.296 417.28 203.584 389.568 422.144 171.008 449.792 198.656 820.352 569.28Z"  horiz-adv-x="1024" />

    
    <glyph glyph-name="jinggao" unicode="&#58936;" d="M484.429061 186.069045l55.141878 0L539.570939 406.635533l-55.141878 0L484.429061 186.069045 484.429061 186.069045zM511.997953 544.490228c-167.494759 0-303.278281-135.755894-303.278281-303.282375 0-167.474292 135.783523-303.278281 303.278281-303.278281 167.502945 0 303.282375 135.803989 303.282375 303.278281C815.280328 408.734334 679.500898 544.490228 511.997953 544.490228L511.997953 544.490228zM511.997953-6.93162c-137.043213 0-248.13538 111.092168-248.13538 248.139473s111.092168 248.139473 248.13538 248.139473c137.051399 0 248.139473-111.088074 248.139473-248.139473C760.137427 104.160547 649.049353-6.93162 511.997953-6.93162L511.997953-6.93162zM484.429061 75.784266l55.141878 0 0 55.138808-55.141878 0L484.429061 75.784266 484.429061 75.784266zM484.429061 75.784266"  horiz-adv-x="1024" />

    
    <glyph glyph-name="shanchu-copy" unicode="&#58919;" d="M344.459 104.618c15.423 0 27.902 12.48 27.902 27.902v306.921c0 15.423-12.479 27.902-27.902 27.902s-27.902-12.481-27.902-27.902v-306.922c0-15.423 12.48-27.901 27.902-27.901zM511.872 104.618c15.424 0 27.902 12.48 27.902 27.902v306.921c0 15.423-12.48 27.902-27.902 27.902s-27.902-12.481-27.902-27.902v-306.922c-0.001-15.423 12.478-27.901 27.902-27.901zM679.284 104.618c15.423 0 27.902 12.48 27.902 27.902v306.921c0 15.423-12.48 27.902-27.902 27.902s-27.902-12.481-27.902-27.902v-306.922c0-15.423 12.479-27.901 27.902-27.901zM818.793 746.364h-115.559c-12.48 48.011-55.804 83.706-107.657 83.706h-167.412c-51.853 0-95.178-35.695-107.657-83.706h-115.558c-61.553 0-111.608-50.083-111.608-111.608v-27.903h27.902v-27.902h55.804v-530.138c0-61.526 50.055-111.608 111.608-111.608h446.432c61.555 0 111.608 50.082 111.608 111.608v530.139h55.804v27.902h27.902v27.903c0 61.525-50.053 111.607-111.608 111.607zM428.165 774.266h167.412c20.544 0 38.365-11.308 48.039-27.902h-263.488c9.674 16.594 27.493 27.902 48.038 27.902zM790.891 48.814c0-30.79-25.040-55.804-55.804-55.804h-446.432c-30.763 0-59.673 25.014-59.673 55.804l3.869 530.138h558.040v-530.138zM149.145 634.756c0 30.79 25.042 55.804 55.804 55.804h613.845c30.765 0 55.804-25.014 55.804-55.804h-725.453z"  horiz-adv-x="1024" />

    
    <glyph glyph-name="kefu1" unicode="&#59036;" d="M510.285824 757.1712c-155.982848 0-282.402816-123.766784-282.402816-276.484096 0-152.695808 126.419968-276.481024 282.402816-276.481024 155.984896 0 282.404864 123.785216 282.404864 276.481024C792.690688 633.404416 666.27072 757.1712 510.285824 757.1712zM184.190976 374.560768 184.190976 629.8112c-3.576832 0-7.117824-0.146432-10.620928-0.422912C231.441408 755.019776 360.333312 842.51136 510.32576 842.51136c149.994496 0 278.888448-87.491584 336.756736-213.124096-3.503104 0.277504-7.044096 0.423936-10.619904 0.423936l0-255.251456c72.029184 0 130.461696 57.148416 130.461696 127.624192 0 47.863808-26.952704 89.56928-66.807808 111.413248C844.032 771.572736 690.925568 885.03808 510.32576 885.03808c-180.59264 0-333.696-113.458176-389.783552-271.427584-39.868416-21.839872-66.812928-63.553536-66.812928-111.425536C53.72928 431.70816 112.118784 374.560768 184.190976 374.560768zM792.09472 228.230144C718.30016 160.804864 619.231232 119.518208 510.285824 119.518208c-108.742656 0-207.647744 41.135104-281.398272 108.338176C96.897024 161.362944 10.24 43.010048 10.24-117.766144l1003.52 0C1013.76 43.31008 925.481984 161.804288 792.09472 228.230144z"  horiz-adv-x="1024" />

    
    <glyph glyph-name="fenxiang11" unicode="&#58888;" d="M932.088 315.351c-18.561 0-33.735-15.106-33.833-33.901v-245.328c0-20.519-16.636-37.22-37.087-37.22h-709.292c-20.453 0-37.087 16.701-37.087 37.22v611.148c0 20.519 16.634 37.22 37.087 37.22h332.118c18.594 0.035 33.735 15.239 33.735 33.898 0 18.694-15.141 33.901-33.767 33.901h-336.802c-55.149 0-100.039-44.988-100.039-100.27v-620.61c0-55.282 44.89-100.27 100.039-100.27h718.723c55.149 0 100.037 44.988 100.037 100.27v250.243c-0.1 18.592-15.272 33.698-33.831 33.698zM1006.094 594.782v0.362l-239.686 240.183-0.93-0.963c-5.145 2.888-10.955 4.418-16.966 4.418-19.358 0-35.097-15.772-35.097-35.16 0-6.042 1.526-11.854 4.418-17l-1.030-1.063 161.759-162.191-166.011-0.066c-270.297-33.7-336.667-200.937-356.223-460.577 0-19.393 15.737-35.16 35.092-35.16 15.804 0 29.217 10.525 33.602 24.967l1.593 9.331c20.554 245.561 68.96 366.715 287.197 391.084h164.749l-154.587-155.019-6.275-8.831c-2.226-4.682-3.387-10.392-3.387-15.573 0-19.388 15.737-35.16 35.092-35.16 5.511 0 11.588 1.327 16.468 3.85l239.231 238.25c2.122 1.489 4.721 5.161 4.721 7.95 0.004 2.785-1.61 4.878-3.731 6.367z"  horiz-adv-x="1024" />

    
    <glyph glyph-name="xuanzhong" unicode="&#59392;" d="M512 830.464c-245.76 0-445.952-200.192-445.952-445.952 0-245.76 200.192-445.952 445.952-445.952s445.952 200.192 445.952 445.952c0 245.76-200.192 445.952-445.952 445.952zM727.040 457.728l-256-259.072h-0.512v-0.512c-2.048-2.048-4.608-3.072-7.168-4.608-1.024-0.512-2.048-1.536-3.584-2.048-4.096-1.536-7.68-2.56-11.776-2.56-4.096 0-8.192 1.024-12.288 2.56-1.536 0.512-2.048 1.536-3.584 2.048-2.56 1.536-4.608 2.56-6.656 4.608h-0.512l-125.952 129.536c-12.288 12.8-11.776 32.768 0.512 45.056 12.8 12.288 32.768 12.288 45.056-0.512l103.424-105.984 233.472 236.032c12.288 12.8 32.768 12.8 45.056 0.512 12.8-12.288 13.312-32.256 0.512-45.056z"  horiz-adv-x="1024" />

    
    <glyph glyph-name="weixuan" unicode="&#58987;" d="M511.689 797.161c-235.85 0-427.051-191.2-427.051-427.051s191.2-427.051 427.051-427.051 427.051 191.2 427.051 427.051-191.201 427.051-427.051 427.051zM511.689 8.759c-199.571 0-361.351 161.78-361.351 361.351s161.78 361.351 361.351 361.351 361.35-161.78 361.35-361.351-161.78-361.351-361.35-361.351z"  horiz-adv-x="1024" />

    
    <glyph glyph-name="wodedingdan" unicode="&#58901;" d="M427.520208 781.11827a87.925622 87.925622 0 0 0 166.192432 0l3.072-9.658811h97.363027C719.553937 771.459459 719.553937 751.671351 719.553937 751.671351v-94.927567C719.553937 633.081081 694.147667 633.081081 694.147667 633.081081H332.454262S304.418802 633.081081 304.418802 656.743784v94.927567S304.418802 771.459459 327.085181 771.459459h97.349189l3.085838 9.658811zM138.364748 641.522162c2.961297 28.229189 25.91827 51.172324 54.133622 60.73427H262.905289v-55.240648c5.203027-0.899459 4.082162-22.583351 18.653405-37.971027 8.939243-9.437405 21.448649-14.225297 37.18227-17.491027h385.619027c39.161081 3.26573 48.460108 36.614919 56.70746 49.594811V702.27027h67.667027c28.229189-9.548108 51.172324-32.518919 56.873513-60.73427v-662.223568c-5.701189-28.229189-28.644324-51.172324-56.873513-51.172324H192.484532c-28.215351 0-51.172324 22.943135-54.133622 51.172324V641.522162zM896.373829 709.189189a95.481081 95.481081 0 0 1-30.40173 20.493838c-11.803676 4.981622-22.140541 14.114595-37.251459 14.114595H761.067451v7.887567c0 53.746162-34.414703 58.949189-66.919784 61.301622h-63.211243C606.332748 856.838919 560.999991 884.791351 510.616424 884.791351A132.691027 132.691027 0 0 1 392.316748 812.972973c-0.387459-1.909622-65.231568 0-65.231567 0C294.593937 810.620541 262.905289 804.614919 262.905289 751.671351V743.783784H192.49837c-24.700541 0-58.852324-25.835243-67.625514-34.608433A95.121297 95.121297 0 0 1 96.851235 641.522162v-662.223567a95.398054 95.398054 0 0 1 28.007783-67.625514 95.204324 95.204324 0 0 1 30.40173-20.507676c11.831351-4.995459 24.354595-7.527784 37.237622-5.341405H828.734478c12.883027-2.186378 25.420108 0.345946 37.251459 5.341405a95.342703 95.342703 0 0 1 30.40173 20.493838 95.135135 95.135135 0 0 1 20.48 30.40173c4.995459 11.762162 7.527784 24.313081 10.267676 37.223784V641.549838c-2.739892 12.938378-5.258378 25.461622-10.267676 37.251459a95.522595 95.522595 0 0 1-20.48 30.387892zM290.580964 370.162162l442.810811 0 0-41.513513-442.810811 0 0 41.513513ZM290.580964 190.27027l221.405406 0 0-41.513513-221.405406 0 0 41.513513Z"  horiz-adv-x="1024" />

    
    <glyph glyph-name="guizeshuoming" unicode="&#59155;" d="M762.054079 754.886075c-14.304797 9.658987-33.719986 5.897314-43.36874-8.393157-9.658987-14.295588-5.897314-33.709753 8.398274-43.36874 106.359376-71.856561 169.858596-191.276395 169.858596-319.443449 0-212.408691-172.806741-385.215432-385.215432-385.215432S126.511345 171.272038 126.511345 383.680728c0 128.168078 63.49922 247.586888 169.853479 319.443449 14.295588 9.658987 18.057261 29.073152 8.398274 43.36874-9.653871 14.290471-29.062919 18.052145-43.363623 8.393157C137.822972 671.397592 64.044642 532.631132 64.044642 383.680728c0-246.855224 200.827935-447.683159 447.683159-447.683159s447.683159 200.827935 447.683159 447.683159C959.409936 532.626016 885.631606 671.397592 762.054079 754.886075zM400.25087 831.363887c-17.248849 0-31.233352-13.985526-31.233352-31.233352l0-30.476105c0-17.248849 13.985526-31.233352 31.233352-31.233352s31.233352 13.985526 31.233352 31.233352L431.484222 800.130535C431.485245 817.379385 417.499719 831.363887 400.25087 831.363887zM623.203708 831.363887c-17.248849 0-31.233352-13.985526-31.233352-31.233352l0-30.476105c0-17.248849 13.985526-31.233352 31.233352-31.233352s31.233352 13.985526 31.233352 31.233352L654.43706 800.130535C654.43706 817.379385 640.451534 831.363887 623.203708 831.363887zM425.248194 668.343023c11.209296-18.047028 41.974997-48.588625 86.157265-48.588625 43.958164 0 75.100442 30.3134 86.573751 48.223305 9.302877 14.528901 5.068436 33.846876-9.455349 43.149752-14.539134 9.31311-33.846876 5.063319-43.149752-9.455349-0.121773-0.198521-13.379729-19.449981-33.968649-19.449981-20.008706 0-32.443923 18.127869-33.276894 19.373233-9.175987 14.427594-28.28009 18.799158-42.829458 9.760295C420.642293 702.250274 416.143838 682.993698 425.248194 668.343023zM534.131043 487.792924c17.248849 0 31.233352 13.985526 31.233352 31.233352L565.364395 529.438417c0 17.248849-13.985526 31.233352-31.233352 31.233352s-31.233352-13.985526-31.233352-31.233352l0-10.411117C502.897691 501.77845 516.883217 487.792924 534.131043 487.792924zM612.042507 227.369683c-9.674337 14.285355-29.083385 18.031679-43.373857 8.336876l-37.146015-25.164123 33.449833 209.866798c1.962701 12.297071-3.568269 24.583908-14.0766 31.269168-10.498098 6.680143-23.974018 6.491855-34.283828-0.49835l-96.863095-65.63486c-14.285355-9.674337-18.016329-29.093619-8.336876-43.373857 9.674337-14.285355 29.098735-18.026562 43.372833-8.336876l37.146015 25.169239-33.449833-209.866798c-1.962701-12.297071 3.568269-24.583908 14.0766-31.269168 5.119601-3.258207 10.945283-4.880147 16.765849-4.880147 6.120394 0 12.236696 1.794879 17.517979 5.378497l96.863095 65.629743C617.98587 193.671187 621.721961 213.090469 612.042507 227.369683z"  horiz-adv-x="1024" />

    
    <glyph glyph-name="map" unicode="&#58966;" d="M512.000512-51.105702l-7.54586 8.80248c-62.059428 72.384587-112.612801 136.997164-150.257166 192.040804-37.578874 54.954613-72.614831 115.53434-104.135732 180.053795-31.980365 65.462944-48.196699 127.422088-48.196699 184.156231 0 42.168402 8.226359 82.182744 24.451902 118.931716 16.142655 36.620036 38.641065 69.316715 66.86692 97.17418 27.536146 27.177989 60.487629 49.040926 97.942683 64.979943 37.586037 15.974833 78.252225 24.073278 120.871905 24.073279 42.599214 0 83.265402-8.098445 120.868835-24.070209 37.438681-15.943111 70.38914-37.805024 97.945753-64.979943 28.228925-27.861558 50.726312-60.557214 66.871013-97.182367 16.223496-36.791951 24.449855-76.80527 24.449855-118.926599 0-56.69014-16.21531-118.64826-48.196698-184.153161-31.597649-64.636113-66.633606-125.21277-104.134709-180.056865-37.497009-54.827723-88.050382-119.440299-150.258189-192.038758l-7.543813-8.804526z m-0.002047 850.339821c-39.933501 0-77.984119-7.566326-113.094778-22.488177-35.138288-14.954597-66.01246-35.423791-91.759867-60.836577-26.437116-26.093285-47.514153-56.726979-62.644758-91.052762-15.103999-34.209126-22.760376-71.522963-22.760377-110.910019 0-53.68469 15.536858-112.708991 46.179762-175.433568 31.098275-63.656809 65.646116-123.396401 102.683661-177.559998 35.706223-52.210106 83.244936-113.228831 141.39431-181.494611 58.291614 68.465325 105.83135 129.48405 141.401474 181.495634 36.959773 54.052057 71.508637 113.791649 102.682637 177.562045 30.641881 62.762439 46.179762 121.786741 46.179763 175.430498 0 39.343053-7.6574 76.658937-22.7614 110.908996-15.129582 34.326806-36.20662 64.960501-62.642712 91.052762-25.767873 25.411763-56.643068 45.88198-91.766007 60.839647-35.124985 14.918781-73.176626 22.48613-113.091708 22.48613z m0-401.206638c-15.993253 0-31.330566 3.097548-45.585221 9.20771-14.101159 6.064113-26.440186 14.262842-36.682457 24.37413-10.959609 10.81737-19.61371 23.351847-25.721825 37.254485-6.216585 14.069437-9.373485 29.244045-9.373485 45.082778 0 15.866363 3.1569 31.05632 9.382695 45.1452 6.113231 13.878079 14.762215 26.072819 25.708521 36.240389 10.226922 10.737552 22.62223 19.120476 36.85028 24.917506 14.258749 5.744841 29.5275 8.650007 45.421492 8.650007s31.162744-2.905166 45.3867-8.634658c14.210653-5.780657 26.606984-14.162558 36.880979-24.925692 10.902304-10.107195 19.554358-22.300912 25.715684-36.247552 6.227842-14.152325 9.382695-29.336142 9.382695-45.1452 0-15.838733-3.1569-31.013341-9.382695-45.10222-6.161327-13.970176-14.81645-26.502607-25.719778-37.24323-10.29753-10.141988-22.63451-18.339694-36.670177-24.363897-14.262842-6.112208-29.600155-9.209756-45.593408-9.209756z m0 210.998575c-13.335726 0-26.107611-2.420119-37.957497-7.194866-11.657504-4.751211-21.800515-11.620665-30.112831-20.403702l-0.476861-0.470721c-9.045003-8.350179-16.194844-18.405185-21.252023-29.885657-5.104251-11.55415-7.691169-24.041556-7.691169-37.124526 0-13.05534 2.585895-25.527396 7.686052-37.07029 5.102205-11.612479 12.331863-22.078855 21.497617-31.124881 8.471952-8.364505 18.754133-15.178701 30.560016-20.256347 11.755742-5.03876 24.459065-7.596002 37.745673-7.596002s25.989931 2.558265 37.759998 7.601119c11.746532 5.042853 22.028713 11.859096 30.555924 20.258393a100.340289 100.340289 0 0 1 21.48636 31.111578c5.102205 11.54801 7.689123 24.02109 7.689123 37.075407 0 13.035898-2.587941 25.527396-7.693216 37.127595-5.092995 11.527544-12.241812 21.583574-21.241791 29.875425l-0.477883 0.469697c-8.359388 8.813736-18.503423 15.686261-30.150694 20.424169-11.818163 4.76349-24.591071 7.18361-37.926798 7.183609z"  horiz-adv-x="1024" />

    
    <glyph glyph-name="shangxiajiantou1" unicode="&#58884;" d="M701.44 266.24l-194.56-235.52L307.2 266.24h394.24zM307.2 302.08h394.24c15.36 0 25.6-10.24 30.72-20.48 5.12-15.36 5.12-30.72-5.12-40.96l-199.68-235.52c-10.24-15.36-35.84-15.36-46.08 0l-194.56 230.4c-10.24 5.12-15.36 15.36-15.36 30.72 5.12 15.36 20.48 35.84 35.84 35.84z m322.56-76.8H384l122.88-143.36 122.88 143.36zM701.44 394.24L501.76 624.64 307.2 394.24h394.24zM307.2 358.4h394.24c15.36 0 25.6 10.24 30.72 20.48 5.12 15.36 5.12 30.72-5.12 40.96l-199.68 235.52c-10.24 15.36-35.84 15.36-46.08 0L286.72 419.84c-10.24-5.12-15.36-15.36-15.36-25.6 0-20.48 15.36-35.84 35.84-35.84z m317.44 71.68H378.88l122.88 143.36 122.88-143.36z"  horiz-adv-x="1024" />

    
    <glyph glyph-name="jiantou-copy" unicode="&#59082;" d="M508.749 223.507l-389.11 389.022c-13.026 13.026-32.433 13.026-45.371 0-12.939-13.026-13.026-32.433 0-45.371l408.516-408.43c6.469-6.469 19.495-13.026 25.964-13.026s19.495 0 25.964 6.469l414.985 414.985c13.026 13.026 13.026 32.433 0 45.371-13.026 12.939-32.433 13.026-45.371 0l-395.577-389.021z"  horiz-adv-x="1024" />

    
    <glyph glyph-name="daipingjia" unicode="&#59057;" d="M512-45.786557c-8.868995 0-17.294898 3.547803-23.946388 10.199293l-102.437044 101.992929c-13.302981 13.302981-13.302981 35.032888 0 48.335868s35.032888 13.302981 48.335868 0l78.046541-78.04654 78.04654 78.04654c6.208399 6.208399 15.077394 10.199293 23.946388 10.199293h238.575654c18.625196 0 34.145681 15.077394 34.145681 34.145681V713.398172c0 18.625196-15.077394 34.145681-34.145681 34.145681H170.988326c-18.625196 0-34.145681-15.077394-34.145681-34.145681v-554.754756c0-18.625196 15.077394-34.145681 34.145681-34.145681h102.437044c18.625196 0 34.145681-15.077394 34.145681-34.145682s-15.077394-34.145681-34.145681-34.145681H170.988326C114.226554 56.650487 68.551282 102.325759 68.551282 158.643416V713.398172c0 56.761772 45.675272 102.437044 102.437044 102.437044h682.023348c56.761772 0 102.437044-45.675272 102.437044-102.437044v-554.754756c0-56.317657-45.675272-102.437044-102.437044-102.437044H628.183116l-92.237751-92.237751c-6.65149-6.650467-15.07637-9.755178-23.945365-9.755178zM324.420811 397.662161c-28.380374 0-50.996464 23.059182-50.996465 50.996464 0 28.380374 23.059182 50.996464 50.996465 50.996465 28.380374 0 50.996464-23.059182 50.996464-50.996465 0-27.937283-22.615067-50.996464-50.996464-50.996464z m204.429972 0c-28.380374 0-50.996464 23.059182-50.996464 50.996464 0 28.380374 23.059182 50.996464 50.996464 50.996465 28.380374 0 50.996464-23.059182 50.996465-50.996465 0.444115-27.937283-22.61609-50.996464-50.996465-50.996464z m204.873064 0c-28.380374 0-50.996464 23.059182-50.996464 50.996464 0 28.380374 23.059182 50.996464 50.996464 50.996465 28.380374 0 50.996464-23.059182 50.996465-50.996465 0-27.937283-22.615067-50.996464-50.996465-50.996464z"  horiz-adv-x="1024" />

    
    <glyph glyph-name="guanzhu" unicode="&#58909;" d="M707.73187 755.34861c116.547413 0 211.364919-105.291045 211.364918-234.709603 0-78.903048-35.44221-134.252657-66.72775-183.110411-36.963866-57.81066-104.766089-132.077108-196.075701-214.771505-72.605621-65.754586-134.404106-113.619734-136.99921-115.625414-0.24457-0.188288-0.48607-0.379647-0.725525-0.574075-1.629103-1.319042-4.085038-2.105964-6.568602-2.105964-2.610454 0-4.929266 0.852414-7.297197 2.681062a37.015032 37.015032 0 0 1-0.690731 0.521886c-0.529049 0.39295-61.818951 47.303352-136.78227 115.211998-90.980107 82.418105-158.606321 156.630317-195.569164 214.613916l-0.134053 0.208755c-14.424524 22.327518-32.375362 50.116421-45.552475 81.31191-14.179954 33.571606-21.072945 66.817802-21.072945 101.636818 0 32.140001 5.730515 63.268976 17.030885 92.523254 10.840906 28.063149 26.315342 53.217039 45.995567 74.762751 39.712467 43.479257 92.234681 67.423599 147.889235 67.423598 31.459502 0 61.84658-7.592932 90.317005-22.566971 28.077475-14.767332 53.30402-36.619012 72.953546-63.192228a40.932248 40.932248 0 0 1 65.823148 0c19.683295 26.619264 44.849464 48.480154 72.77856 63.218834 28.343535 14.957667 58.638515 22.541389 90.042759 22.541389m0 40.932248c-77.215616 0-148.594293-38.60832-195.73187-102.356203-47.136553 63.747883-118.965485 102.356202-196.182125 102.356203-139.167596 0-251.847935-123.455753-251.847935-275.641851 0-90.683349 40.403199-154.431232 73.175603-205.15959 94.723362-148.595316 332.207148-333.104587 342.531284-340.736405 9.876951-7.631818 21.100574-11.223622 32.323173-11.223622 11.223622 0 22.89443 3.591805 32.32215 11.223622 9.875928 7.631818 247.807922 192.59032 342.532307 340.736405 32.770358 51.17759 73.17458 114.476241 73.174579 205.15959 0 152.187121-113.128547 275.641851-252.297166 275.641851z"  horiz-adv-x="1024" />

    
    <glyph glyph-name="weixin" unicode="&#59087;" d="M372.5312 264.192c-4.4032-2.9696-10.24-4.4032-16.0768-4.4032-13.1072 0-23.3472 7.2704-29.184 17.5104l-2.9696 4.4032-93.4912 204.4928c-1.4336 2.9696-1.4336 4.4032-1.4336 7.2704 0 8.8064 7.2704 17.5104 17.5104 17.5104 4.4032 0 7.2704-1.4336 10.24-2.9696l109.568-78.848c7.2704-5.8368 17.5104-8.8064 27.7504-8.8064 5.8368 0 11.6736 1.4336 17.5104 2.9696l517.12 230.8096c-93.4912 109.568-245.4528 181.1456-417.792 181.1456C229.376 835.3792 0 643.9936 0 408.8832 0 280.2688 68.608 164.864 176.7424 87.4496c8.8064-5.8368 14.6432-16.0768 14.6432-27.7504 0-4.4032-1.4336-7.2704-1.4336-10.24-8.8064-32.1536-21.9136-83.2512-23.3472-86.2208-1.4336-4.4032-2.9696-8.8064-2.9696-13.1072 0-8.8064 7.2704-17.5104 17.5104-17.5104 4.4032 0 7.2704 1.4336 10.24 2.9696l112.4352 64.3072c8.8064 4.4032 17.5104 7.2704 27.7504 7.2704 5.8368 0 10.24-1.4336 14.6432-2.9696 52.6336-14.6432 108.1344-23.3472 166.5024-23.3472 281.9072 0 511.2832 191.3856 511.2832 426.496 0 71.5776-20.48 138.752-58.4704 197.2224L375.3984 267.1616l-2.8672-2.9696z"  horiz-adv-x="1024" />

    
    <glyph glyph-name="qianjin" unicode="&#58898;" d="M785.644 379.996l1.575 1.497-54.666 54.587-1.575-1.575-440.005 440.162-54.666-54.587 440.084-440.162-440.084-440.084 54.587-54.587 440.162 440.084 1.497-1.575 54.587 54.666-1.575 1.575z"  horiz-adv-x="1024" />

    
    <glyph glyph-name="shouhou" unicode="&#59056;" d="M274.24256 87.86944l-6.656 6.66112c4.16256-4.67456 6.656-12.03712 6.656-18.43712v11.776zM279.36256 76.09344h-10.24c0 5.39136-2.15552 11.42784-5.36064 15.03232l7.4496 7.02464 8.15104-8.16128v-13.89568zM528.45056 420.67456a33.6384 33.6384 0 0 1 4.85888 2.88256l-4.85888-2.88256zM530.67264 416.06144l-4.83328 9.01632 4.85888 2.88256 5.57056-8.58112a38.4512 38.4512 0 0 0-5.59616-3.31776zM630.912 320.128H395.16672l-1.2544-0.06144a24.59136 24.59136 0 0 1-23.73632-24.70912 24.66816 24.66816 0 0 1 23.7568-24.70912l236.9792 0.00512a24.73472 24.73472 0 0 1 0 49.47456zM921.344 277.86752V603.58656a36.97152 36.97152 0 0 1-8.16128 23.30112l-1.18784 1.41824-3.61472 3.59936c-0.19456 0.15872-0.64 0.54272-1.13664 0.93184l-0.46592 0.41472-146.688 146.688c-1.27488 1.39776-2.43712 2.56-3.65568 3.66592a37.3248 37.3248 0 0 1-24.65792 9.29792 37.38624 37.38624 0 0 1-37.30944-33.11616v-165.47328a30.38208 30.38208 0 0 0-4.21376-13.11744l1.792-3.09248-6.67648-3.85024-0.32256 0.56832a30.13632 30.13632 0 0 0-2.6112-2.12992l-0.46592-0.30208-160.57344-91.71456a21.1968 21.1968 0 0 0-8.18176-2.3296l-5.43744-0.3328v1.14176a21.46304 21.46304 0 0 0-4.98176 1.77664L341.4528 573.12768a29.22496 29.22496 0 0 0-12.02688 21.10464l-0.02048 4.74112 0.04096 152.76544c0.16384 1.32608 0.21504 2.70848 0.21504 4.03456s-0.0512 2.70848-0.21504 4.03456a37.46816 37.46816 0 0 1-37.23776 33.46944 37.43744 37.43744 0 0 1-24.82688-9.34912c-1.04448-0.9984-2.23232-2.18112-3.35872-3.4304L116.75648 633.15456c-0.54272-0.42496-0.8448-0.64-1.13664-0.93184l-3.84-3.84c-0.26624-0.26624-0.512-0.52736-0.71168-0.82944-5.59616-6.98368-8.41728-15.03744-8.41728-23.64928v-325.7856a37.66784 37.66784 0 0 1 10.50112-21.80096l166.20032-166.26688v-85.25312c0.10752-16.49664 13.31712-29.62944 29.44-29.62944h207.42656v-0.32256h198.97344c16.12288 0 29.33248 13.1328 29.44 29.28128v85.66784l165.85216 165.9136 4.00384-3.23584-3.6352 3.60448a36.82816 36.82816 0 0 1 10.49088 21.79072z m-46.976 8.07936l-168.73984-168.80128a37.2736 37.2736 0 0 1-9.88672-20.59264v-41.50784c-1.31072-17.46944-15.77984-30.848-32.96256-30.848H507.776v0.32256H361.216c-17.1776 0-31.65184 13.37856-32.9472 30.464l-0.01536 31.81568 0.128 0.512-0.08704 9.24672a37.34528 37.34528 0 0 1-10.02496 21.01248l-0.0512 0.05632-1.27488 1.19296-153.52832 153.66144a47.48288 47.48288 0 0 0-13.77792 29.77792l-0.01536 277.78048c0 6.4512 1.32608 12.81024 3.84 18.688l-2.33984 2.33984L279.3472 729.43104v-158.60736c-0.07168-1.42336-0.128-2.47296-0.128-3.584a28.43136 28.43136 0 0 1 11.66848-22.88128c1.69472-1.21344 3.5328-2.2528 5.59616-3.14368l0.49664-0.24576 200.12544-113.408a29.7472 29.7472 0 0 1 14.37184-5.04832l2.61632-0.19456a29.2864 29.2864 0 0 1 8.70912 2.53952l210.52928 119.3472a28.18048 28.18048 0 0 1 11.23328 19.4048V729.04192l128.29696-128.36352-2.31936-2.31936a47.49312 47.49312 0 0 0 3.81952-18.64704v-293.76512z"  horiz-adv-x="1024" />

    
    <glyph glyph-name="toLeft-copy" unicode="&#58632;" d="M680.143-66.938l-449.867 452.010 447.668 449.867 59.806-60.088-387.863-389.779 390.061-391.922z"  horiz-adv-x="1024" />

    
    <glyph glyph-name="icon59" unicode="&#58625;" d="M354.369 504.395c0-22.606 18.326-40.932 40.932-40.932s40.932 18.326 40.932 40.932c0 22.606-18.326 40.932-40.932 40.932-22.606 0-40.932-18.326-40.932-40.932zM823.773 121.458l-131.425 131.415c40.099 49.786 61.895 111.263 61.895 176.1 0 75.168-29.273 145.838-82.427 198.991-53.154 53.154-123.822 82.426-198.987 82.426s-145.833-29.273-198.988-82.426c-53.153-53.154-82.425-123.822-82.425-198.989 0-75.168 29.274-145.832 82.426-198.976 35.724-35.723 80.348-61.188 129.047-73.641 22.911-5.858 46.422-8.784 69.935-8.784 24.981 0 49.962 3.304 74.191 9.909 16.359 4.456 26.006 21.332 21.55 37.69-4.459 16.358-21.335 26.008-37.69 21.548-76.066-20.727-157.919 0.997-213.619 56.697-41.555 41.547-64.442 96.791-64.442 155.557 0 58.766 22.886 114.018 64.444 155.574 85.783 85.783 225.361 85.783 311.144 0 41.556-41.556 64.444-96.809 64.444-155.575s-22.886-114.016-64.443-155.568c-11.99-11.988-11.991-31.425-0.003-43.415 1.504-1.503 3.124-2.818 4.833-3.944 1.127-1.708 2.441-3.329 3.944-4.832l143.183-143.173c5.995-5.994 13.85-8.991 21.707-8.991s15.714 2.998 21.708 8.992c11.989 11.989 11.988 31.428-0.001 43.415z"  horiz-adv-x="1024" />

    
    <glyph glyph-name="gerenzhongxin" unicode="&#58893;" d="M509.148334 896C228.029053 896 0.091824 668.062771 0.091824 386.94349a508.999918 508.999918 0 1 1 1017.929097 0.113183C1018.020921 668.076919 790.23932 896 509.148334 896z m355.834476-796.52821l-185.337825 72.2959s-36.261133 14.063038-50.423206 28.012893c-9.097116 8.870749-8.403868 29.937011-0.339551 56.747329s105.557673 135.961565 105.557673 234.9546c0 152.981519-100.620047 277.044679-224.711502 277.044679s-224.570023-124.063159-224.570022-277.17201c0-94.791101 86.910707-207.974506 97.620686-228.630477s8.177501-51.922887-0.33955-61.359554c-12.733133-14.275257-59.166625-28.550514-59.166625-28.550513L154.700355 97.774039a455.775422 455.775422 0 0 0-102.98275 289.169451c0 252.568767 204.791223 457.35999 457.35999 457.35999S966.395141 639.512257 966.395141 386.94349a455.435872 455.435872 0 0 0-101.412331-287.443404z"  horiz-adv-x="1024" />

    
    <glyph glyph-name="gengduo" unicode="&#59272;" d="M512 384m-512 0a512 512 0 1 1 1024 0 512 512 0 1 1-1024 0ZM2432 384m-512 0a512 512 0 1 1 1024 0 512 512 0 1 1-1024 0ZM4352 384m-512 0a512 512 0 1 1 1024 0 512 512 0 1 1-1024 0Z"  horiz-adv-x="4864" />

    
    <glyph glyph-name="daishouhuo1" unicode="&#58904;" d="M949.435 561.735l-60.423 120.844c-17.986 35.97-63.682 64.226-103.945 64.226h-546.19c-40.264 0-85.96-28.254-103.946-64.226L74.508 561.735c-6.412-12.823-8.53-25.864-7.28-38.09h-0.381v-470.338h0.054v-5.161c0-14.89 12.063-26.952 26.951-26.952h835.805c14.888 0 26.95 12.063 26.95 26.952v5.161h0.543V523.645h-0.434c1.25 12.226-0.869 25.267-7.28 38.09z m-826.947-88.35c2.39-0.218 4.62-0.762 7.118-0.762h764.731c2.5 0 4.73 0.544 7.174 0.762v-86.233H706.714c-15.377 0-27.821-12.444-27.821-27.82 0-15.378 12.443-27.821 27.821-27.821H901.51v-55.642H539.79c-15.375 0-27.82-12.442-27.82-27.82 0-15.377 12.444-27.821 27.82-27.821H901.51v-145.132H122.487V473.385z m1.793 63.464l60.422 120.844c8.748 17.497 34.558 33.472 54.174 33.472h546.19c19.614 0 45.425-15.975 54.173-33.472l60.423-120.844c2.282-4.672 2.608-7.064 2.716-7.01-0.49-0.38-3.043-1.575-8.043-1.575h-764.73c-4.184 0-6.629 0.87-7.28 0.87-0.163 0-0.217-0.109-0.217-0.163-0.11 0.597-0.056 3.423 2.172 7.878zM372.87 387.152c-15.376 0-27.82-12.444-27.82-27.82v-139.103h-139.1c-15.378 0-27.822-12.443-27.822-27.82 0-15.378 12.444-27.821 27.821-27.821h166.922c15.377 0 27.82 12.442 27.82 27.82V359.33c0 15.378-12.443 27.822-27.82 27.822z"  horiz-adv-x="1024" />

    
    <glyph glyph-name="sousuo" unicode="&#58961;" d="M839.68 51.2c7.68-7.68 10.24-17.92 10.24-25.6 0-10.24-5.12-20.48-12.8-28.16s-15.36-12.8-28.16-12.8c-5.12 0-10.24 0-12.8 2.56-7.68 2.56-12.8 5.12-15.36 10.24l-212.48 212.48c-51.2-35.84-107.52-53.76-171.52-53.76h-20.48c-12.8 0-25.6 2.56-35.84 5.12-35.84 2.56-81.92 23.04-120.32 53.76-23.04 12.8-56.32 48.64-79.36 89.6-20.48 33.28-33.28 71.68-35.84 112.64 2.56-25.6-2.56 2.56-2.56 33.28v2.56c0 17.92 2.56 35.84 5.12 51.2 7.68 46.08 25.6 89.6 53.76 125.44 12.8 25.6 56.32 64 110.08 89.6-28.16-10.24 0 5.12 33.28 15.36 28.16 10.24 61.44 15.36 94.72 15.36 12.8 0 25.6 0 38.4-2.56 33.28-5.12 66.56-15.36 97.28-30.72 51.2-25.6 89.6-64 117.76-112.64-10.24 23.04 10.24-10.24 25.6-48.64 12.8-38.4 20.48-76.8 17.92-117.76-2.56-66.56-25.6-125.44-66.56-176.64l209.92-209.92z m-186.88 391.68v12.8c0 33.28-7.68 64-17.92 92.16-12.8 35.84-35.84 69.12-64 94.72 23.04-20.48 7.68-5.12-10.24 7.68-30.72 25.6-69.12 46.08-112.64 53.76 25.6-5.12-10.24 5.12-48.64 5.12-10.24 0-20.48 0-30.72-2.56h-12.8c-46.08-7.68-87.04-25.6-120.32-53.76-25.6-15.36-58.88-58.88-74.24-107.52-2.56 7.68-12.8-30.72-15.36-74.24 0-48.64 7.68-87.04 25.6-125.44 20.48-48.64 56.32-84.48 99.84-110.08 0-5.12 43.52-25.6 94.72-33.28 2.56-2.56 38.4-5.12 76.8 0 33.28 5.12 61.44 17.92 87.04 33.28 7.68 2.56 40.96 25.6 66.56 56.32-10.24-15.36 17.92 17.92 35.84 58.88-25.6-46.08-15.36-30.72-7.68-12.8 15.36 30.72 25.6 69.12 25.6 107.52l2.56-2.56z"  horiz-adv-x="1024" />

    
    <glyph glyph-name="chakan" unicode="&#58892;" d="M490.002573-84.268588a490.002573 490.002573 0 1 0 490.002572 490.002573 490.529457 490.529457 0 0 0-490.002572-490.002573z m0 911.773605a421.507589 421.507589 0 1 1 421.507589-421.50759 421.507589 421.507589 0 0 1-421.507589 421.50759zM352.222279 440.508361h-82.984306a44.258297 44.258297 0 0 1 0-79.032673h82.984306a44.258297 44.258297 0 0 1 0 79.032673z m396.744019 0H478.411114a45.83895 45.83895 0 0 1 0-79.032673h270.555184a45.83895 45.83895 0 0 1 0 79.032673zM786.901981 50.613841l72.446617 72.446617 178.613841-178.613841-72.446617-72.446617z"  horiz-adv-x="1037" />

    
    <glyph glyph-name="chuyidong" unicode="&#58886;" d="M512 454.30748639651154L254.3219023179334 712.043592649218a49.71412125496538 49.71412125496538 0 1 1-70.30748492361464-70.30748639651151L441.63450503284866 384l-257.7361077256034-257.6780976820668a49.71412125496538 49.71412125496538 0 1 1 70.30748639651151-70.30748492361464L512 313.63450503284855l257.6780976820668-257.7361077256034a49.71412125496538 49.71412125496538 0 1 1 70.30748492361464 70.30748639651151L582.3654949671514 384l257.7361077256034 257.6780976820668a49.71412125496538 49.71412125496538 0 1 1-70.30748639651151 70.30748492361464L512 454.36549496715134z"  horiz-adv-x="1024" />

    
    <glyph glyph-name="f11-copy" unicode="&#58669;" d="M328.20792302595464 549.9378430603648l368.4938888522427 0c20.393071563698495 0 36.887279252459585-16.366076012119944 36.887279252459585-36.757317123294996 0-9.4835745239675-3.6371091640848143-18.055583691259486-9.4835745239675-24.550029244441628l-182.23253142407032-243.15182185683665c-12.210948783900248-16.104321301267337-35.199602025843475-19.483336659546435-51.43754636132228-7.274218328169629-2.859166841620776 2.0793940666332906-5.324786390700918 4.546844068236879-7.274218328169629 7.274218328169629L298.85295590747035 491.2279088233963c-12.079156202212225 16.10615175379078-8.830102973097707 39.22476712489858 7.404180457334207 51.305753779634244C312.8833744996749 547.6003551879257 320.5456487628147 549.9378430603648 328.20792302595464 549.9378430603648L328.20792302595464 549.9378430603648z"  horiz-adv-x="1024" />

    
    <glyph glyph-name="jiantouxia" unicode="&#58626;" d="M98.15749999999997 464.4892187500001l412.68234375000003-412.35328125 412.35328125 412.68234375000003-825.035625-0.32906250000000004z"  horiz-adv-x="1024" />

    


  </font>
</defs>
</svg>
